<?xml version="1.0" encoding="UTF-8" standalone="no"?>
<!DOCTYPE svg PUBLIC "-//W3C//DTD SVG 1.1//EN" "http://www.w3.org/Graphics/SVG/1.1/DTD/svg11.dtd">
<svg width="100%" height="100%" viewBox="0 0 3508 2481" version="1.1" xmlns="http://www.w3.org/2000/svg" xmlns:xlink="http://www.w3.org/1999/xlink" xml:space="preserve" xmlns:serif="http://www.serif.com/" style="fill-rule:evenodd;clip-rule:evenodd;stroke-linejoin:round;stroke-miterlimit:2;">
    <g transform="matrix(1,0,0,1,76.8465,26.2623)">
        <g id="Play" transform="matrix(35.3868,4.79794e-30,-4.36176e-31,35.3868,-5911.74,-9207.53)">
            <path d="M236,284.2C236,283.265 237.064,282.69 237.894,283.177L255.404,293.479C256.198,293.945 256.198,295.055 255.404,295.522C252.694,297.117 250.661,298.312 249.306,299.11C246.77,300.601 242.966,302.839 237.894,305.823C237.064,306.31 236,305.736 236,304.801L236,284.2Z" style="fill:rgb(226,53,53);stroke:white;stroke-width:0.11px;"/>
        </g>
        <g id="Forward" transform="matrix(-19.9599,2.21422e-30,2.46024e-31,19.9599,8490.58,-4674.27)">
            <path d="M279,287.832C279,287.187 279.627,286.789 280.122,287.118L290.883,294.286C290.958,294.337 291.018,294.402 291.07,294.472L291.07,287.853C291.07,287.204 291.705,286.805 292.2,287.143L302.645,294.291C303.118,294.615 303.118,295.385 302.645,295.709L292.2,302.856C291.705,303.194 291.07,302.796 291.07,302.147L291.07,295.528C291.018,295.598 290.958,295.662 290.883,295.714L280.122,302.882C279.627,303.212 279,302.812 279,302.167L279,287.832Z" style="stroke:white;stroke-width:0.21px;"/>
        </g>
        <g transform="matrix(14.1254,0,0,14.1254,-9320.26,-15752.1)">
            <path d="M693.119,1217.02C692.753,1217.12 692.186,1217.22 691.419,1217.32C690.653,1217.42 689.903,1217.47 689.169,1217.47C687.636,1217.47 686.486,1217.21 685.719,1216.69C684.953,1216.18 684.569,1215.09 684.569,1213.42L684.569,1206.67C683.736,1205.44 682.836,1204.07 681.869,1202.57C680.903,1201.07 679.953,1199.54 679.019,1197.97C678.086,1196.4 677.219,1194.86 676.419,1193.35C675.619,1191.83 674.969,1190.44 674.469,1189.17C674.903,1188.57 675.494,1188.02 676.244,1187.52C676.994,1187.02 677.919,1186.77 679.019,1186.77C680.319,1186.77 681.378,1187.04 682.194,1187.57C683.011,1188.1 683.786,1189.1 684.519,1190.57L688.669,1198.92L688.969,1198.92C689.436,1197.89 689.844,1196.94 690.194,1196.1C690.544,1195.25 690.886,1194.39 691.219,1193.55C691.553,1192.69 691.903,1191.81 692.269,1190.89C692.636,1189.98 693.053,1188.92 693.519,1187.72C694.119,1187.42 694.786,1187.19 695.519,1187.02C696.253,1186.85 696.953,1186.77 697.619,1186.77C698.786,1186.77 699.778,1187.08 700.594,1187.69C701.411,1188.31 701.819,1189.24 701.819,1190.47C701.819,1190.87 701.736,1191.35 701.569,1191.92C701.403,1192.49 701.019,1193.35 700.419,1194.5C699.819,1195.64 698.944,1197.2 697.794,1199.17C696.644,1201.14 695.086,1203.7 693.119,1206.87L693.119,1217.02Z" style="fill:rgb(226,53,53);fill-rule:nonzero;stroke:white;stroke-width:0.28px;"/>
            <path d="M704.269,1193.27C704.603,1193.17 705.128,1193.07 705.844,1192.97C706.561,1192.87 707.303,1192.82 708.069,1192.82C708.803,1192.82 709.461,1192.87 710.044,1192.97C710.628,1193.07 711.119,1193.27 711.519,1193.57C711.919,1193.87 712.228,1194.28 712.444,1194.8C712.661,1195.31 712.769,1195.99 712.769,1196.82L712.769,1207.57C712.769,1208.94 713.103,1209.91 713.769,1210.5C714.436,1211.08 715.403,1211.37 716.669,1211.37C717.436,1211.37 718.061,1211.3 718.544,1211.17C719.028,1211.04 719.403,1210.9 719.669,1210.77L719.669,1193.27C720.003,1193.17 720.528,1193.07 721.244,1192.97C721.961,1192.87 722.703,1192.82 723.469,1192.82C724.203,1192.82 724.861,1192.87 725.444,1192.97C726.028,1193.07 726.519,1193.27 726.919,1193.57C727.319,1193.87 727.628,1194.28 727.844,1194.8C728.061,1195.31 728.169,1195.99 728.169,1196.82L728.169,1212.02C728.169,1213.69 727.469,1214.94 726.069,1215.77C724.903,1216.5 723.511,1217.06 721.894,1217.44C720.278,1217.83 718.519,1218.02 716.619,1218.02C714.819,1218.02 713.161,1217.82 711.644,1217.42C710.128,1217.02 708.819,1216.4 707.719,1215.57C706.619,1214.74 705.769,1213.66 705.169,1212.35C704.569,1211.03 704.269,1209.44 704.269,1207.57L704.269,1193.27Z" style="fill-rule:nonzero;stroke:white;stroke-width:0.28px;"/>
            <path d="M741.869,1208.87C741.869,1209.74 742.144,1210.35 742.694,1210.72C743.244,1211.09 744.019,1211.27 745.019,1211.27C745.519,1211.27 746.036,1211.23 746.569,1211.14C747.103,1211.06 747.569,1210.95 747.969,1210.82C748.269,1211.19 748.528,1211.6 748.744,1212.05C748.961,1212.5 749.069,1213.04 749.069,1213.67C749.069,1214.94 748.594,1215.97 747.644,1216.77C746.694,1217.57 745.019,1217.97 742.619,1217.97C739.686,1217.97 737.428,1217.3 735.844,1215.97C734.261,1214.64 733.469,1212.47 733.469,1209.47L733.469,1188.07C733.836,1187.97 734.361,1187.86 735.044,1187.75C735.728,1187.63 736.453,1187.57 737.219,1187.57C738.686,1187.57 739.828,1187.83 740.644,1188.35C741.461,1188.86 741.869,1189.95 741.869,1191.62L741.869,1194.82L748.419,1194.82C748.619,1195.19 748.811,1195.64 748.994,1196.19C749.178,1196.75 749.269,1197.35 749.269,1198.02C749.269,1199.19 749.011,1200.03 748.494,1200.55C747.978,1201.06 747.286,1201.32 746.419,1201.32L741.869,1201.32L741.869,1208.87Z" style="fill-rule:nonzero;stroke:white;stroke-width:0.28px;"/>
            <path d="M753.369,1193.27C753.703,1193.17 754.228,1193.07 754.944,1192.97C755.661,1192.87 756.403,1192.82 757.169,1192.82C757.903,1192.82 758.561,1192.87 759.144,1192.97C759.728,1193.07 760.219,1193.27 760.619,1193.57C761.019,1193.87 761.328,1194.28 761.544,1194.8C761.761,1195.31 761.869,1195.99 761.869,1196.82L761.869,1207.57C761.869,1208.94 762.203,1209.91 762.869,1210.5C763.536,1211.08 764.503,1211.37 765.769,1211.37C766.536,1211.37 767.161,1211.3 767.644,1211.17C768.128,1211.04 768.503,1210.9 768.769,1210.77L768.769,1193.27C769.103,1193.17 769.628,1193.07 770.344,1192.97C771.061,1192.87 771.803,1192.82 772.569,1192.82C773.303,1192.82 773.961,1192.87 774.544,1192.97C775.128,1193.07 775.619,1193.27 776.019,1193.57C776.419,1193.87 776.728,1194.28 776.944,1194.8C777.161,1195.31 777.269,1195.99 777.269,1196.82L777.269,1212.02C777.269,1213.69 776.569,1214.94 775.169,1215.77C774.003,1216.5 772.611,1217.06 770.994,1217.44C769.378,1217.83 767.619,1218.02 765.719,1218.02C763.919,1218.02 762.261,1217.82 760.744,1217.42C759.228,1217.02 757.919,1216.4 756.819,1215.57C755.719,1214.74 754.869,1213.66 754.269,1212.35C753.669,1211.03 753.369,1209.44 753.369,1207.57L753.369,1193.27Z" style="fill-rule:nonzero;stroke:white;stroke-width:0.28px;"/>
            <path d="M806.219,1212.82C806.053,1214.39 805.594,1215.59 804.844,1216.42C804.094,1217.25 803.003,1217.67 801.569,1217.67C800.503,1217.67 799.553,1217.41 798.719,1216.89C797.886,1216.38 796.986,1215.5 796.019,1214.27L791.069,1208.07L791.069,1217.17C790.703,1217.24 790.161,1217.33 789.444,1217.44C788.728,1217.56 788.003,1217.62 787.269,1217.62C786.536,1217.62 785.878,1217.57 785.294,1217.47C784.711,1217.37 784.219,1217.17 783.819,1216.87C783.419,1216.57 783.111,1216.16 782.894,1215.64C782.678,1215.13 782.569,1214.45 782.569,1213.62L782.569,1184.67C782.936,1184.57 783.478,1184.46 784.194,1184.35C784.911,1184.23 785.636,1184.17 786.369,1184.17C787.103,1184.17 787.761,1184.22 788.344,1184.32C788.928,1184.42 789.419,1184.62 789.819,1184.92C790.219,1185.22 790.528,1185.63 790.744,1186.14C790.961,1186.66 791.069,1187.34 791.069,1188.17L791.069,1201.37L799.669,1192.57C801.403,1192.57 802.794,1192.95 803.844,1193.72C804.894,1194.49 805.419,1195.45 805.419,1196.62C805.419,1197.12 805.336,1197.58 805.169,1198C805.003,1198.41 804.744,1198.84 804.394,1199.27C804.044,1199.7 803.594,1200.16 803.044,1200.64C802.494,1201.13 801.853,1201.69 801.119,1202.32L798.219,1204.82L806.219,1212.82Z" style="fill-rule:nonzero;stroke:white;stroke-width:0.28px;"/>
            <path d="M820.719,1211.82C821.286,1211.82 821.911,1211.76 822.594,1211.64C823.278,1211.53 823.786,1211.37 824.119,1211.17L824.119,1207.17L820.519,1207.47C819.586,1207.54 818.819,1207.74 818.219,1208.07C817.619,1208.4 817.319,1208.9 817.319,1209.57C817.319,1210.24 817.578,1210.78 818.094,1211.19C818.611,1211.61 819.486,1211.82 820.719,1211.82ZM820.319,1192.17C822.119,1192.17 823.761,1192.35 825.244,1192.72C826.728,1193.09 827.994,1193.64 829.044,1194.39C830.094,1195.14 830.903,1196.1 831.469,1197.25C832.036,1198.39 832.319,1199.75 832.319,1201.32L832.319,1212.52C832.319,1213.39 832.078,1214.1 831.594,1214.64C831.111,1215.19 830.536,1215.67 829.869,1216.07C827.703,1217.37 824.653,1218.02 820.719,1218.02C818.953,1218.02 817.361,1217.85 815.944,1217.52C814.528,1217.19 813.311,1216.69 812.294,1216.02C811.278,1215.35 810.494,1214.5 809.944,1213.47C809.394,1212.44 809.119,1211.24 809.119,1209.87C809.119,1207.57 809.803,1205.8 811.169,1204.57C812.536,1203.34 814.653,1202.57 817.519,1202.27L824.069,1201.57L824.069,1201.22C824.069,1200.25 823.644,1199.56 822.794,1199.14C821.944,1198.73 820.719,1198.52 819.119,1198.52C817.853,1198.52 816.619,1198.65 815.419,1198.92C814.219,1199.19 813.136,1199.52 812.169,1199.92C811.736,1199.62 811.369,1199.16 811.069,1198.55C810.769,1197.93 810.619,1197.29 810.619,1196.62C810.619,1195.75 810.828,1195.06 811.244,1194.55C811.661,1194.03 812.303,1193.59 813.169,1193.22C814.136,1192.85 815.278,1192.59 816.594,1192.42C817.911,1192.25 819.153,1192.17 820.319,1192.17Z" style="fill-rule:nonzero;stroke:white;stroke-width:0.28px;"/>
        </g>
    </g>
</svg>
